<svg width="1238" height="460" viewBox="0 0 1238 460" fill="none" xmlns="http://www.w3.org/2000/svg">
<rect width="1238" height="460" rx="89" fill="url(#paint0_linear_33_3)"/>
<path d="M442.298 183.909L455.707 259.727H456.752L495.161 183.909H510.343L461.388 277H445.161L427.116 183.909H442.298ZM531.561 277L543.197 207.182H556.788L545.152 277H531.561ZM552.833 196.273C550.47 196.273 548.47 195.485 546.833 193.909C545.227 192.303 544.485 190.394 544.606 188.182C544.727 185.939 545.667 184.03 547.424 182.455C549.182 180.848 551.227 180.045 553.561 180.045C555.924 180.045 557.909 180.848 559.515 182.455C561.121 184.03 561.879 185.939 561.788 188.182C561.667 190.394 560.727 192.303 558.97 193.909C557.243 195.485 555.197 196.273 552.833 196.273ZM631.983 207.182L630.21 218.091H592.074L593.847 207.182H631.983ZM606.801 190.455H620.392L609.392 256.5C608.968 259.136 609.044 261.121 609.619 262.455C610.195 263.758 611.074 264.652 612.256 265.136C613.468 265.591 614.816 265.818 616.301 265.818C617.392 265.818 618.347 265.742 619.165 265.591C619.983 265.439 620.634 265.318 621.119 265.227L621.847 276.455C620.938 276.758 619.71 277.061 618.165 277.364C616.65 277.697 614.801 277.879 612.619 277.909C609.044 277.97 605.816 277.333 602.938 276C600.059 274.636 597.907 272.576 596.483 269.818C595.059 267.03 594.71 263.53 595.438 259.318L606.801 190.455ZM679.837 278.545C675.413 278.545 671.549 277.727 668.246 276.091C664.943 274.424 662.504 272.015 660.928 268.864C659.352 265.712 658.943 261.848 659.701 257.273C660.367 253.333 661.67 250.091 663.61 247.545C665.579 245 667.973 242.985 670.792 241.5C673.61 239.985 676.67 238.848 679.973 238.091C683.276 237.333 686.61 236.773 689.973 236.409C694.216 235.924 697.655 235.515 700.292 235.182C702.958 234.848 704.958 234.333 706.292 233.636C707.625 232.909 708.428 231.727 708.701 230.091V229.773C709.337 225.833 708.761 222.773 706.973 220.591C705.216 218.379 702.155 217.273 697.792 217.273C693.246 217.273 689.428 218.273 686.337 220.273C683.276 222.273 681.019 224.515 679.564 227L667.382 224.091C669.564 219.848 672.337 216.424 675.701 213.818C679.095 211.182 682.807 209.273 686.837 208.091C690.867 206.879 694.989 206.273 699.201 206.273C701.989 206.273 704.882 206.606 707.882 207.273C710.882 207.909 713.61 209.091 716.064 210.818C718.549 212.545 720.398 215.015 721.61 218.227C722.822 221.409 723.004 225.545 722.155 230.636L714.473 277H701.201L702.837 267.455H702.292C701.14 269.212 699.534 270.939 697.473 272.636C695.443 274.333 692.958 275.742 690.019 276.864C687.079 277.985 683.686 278.545 679.837 278.545ZM684.473 267.636C688.261 267.636 691.61 266.894 694.519 265.409C697.458 263.924 699.837 261.985 701.655 259.591C703.473 257.167 704.61 254.576 705.064 251.818L706.564 242.818C705.989 243.303 704.973 243.742 703.519 244.136C702.095 244.53 700.489 244.879 698.701 245.182C696.913 245.485 695.155 245.742 693.428 245.955C691.731 246.167 690.322 246.364 689.201 246.545C686.534 246.879 684.034 247.439 681.701 248.227C679.398 249.015 677.473 250.152 675.928 251.636C674.382 253.091 673.413 255.03 673.019 257.455C672.473 260.818 673.276 263.364 675.428 265.091C677.61 266.788 680.625 267.636 684.473 267.636ZM752.578 303.182L768.668 207.182H781.941L780.078 218.5H781.214C782.244 217.045 783.638 215.364 785.396 213.455C787.184 211.545 789.532 209.879 792.441 208.455C795.35 207 798.971 206.273 803.305 206.273C808.941 206.273 813.714 207.697 817.623 210.545C821.532 213.394 824.32 217.5 825.987 222.864C827.653 228.227 827.865 234.682 826.623 242.227C825.381 249.773 823.047 256.242 819.623 261.636C816.199 267 812.047 271.136 807.168 274.045C802.32 276.924 797.062 278.364 791.396 278.364C787.153 278.364 783.805 277.652 781.35 276.227C778.926 274.803 777.123 273.136 775.941 271.227C774.759 269.318 773.865 267.621 773.259 266.136H772.441L766.259 303.182H752.578ZM776.168 242.091C775.381 247 775.381 251.303 776.168 255C776.956 258.697 778.532 261.591 780.896 263.682C783.29 265.742 786.441 266.773 790.35 266.773C794.411 266.773 797.971 265.697 801.032 263.545C804.093 261.364 806.623 258.409 808.623 254.682C810.653 250.955 812.062 246.758 812.85 242.091C813.608 237.485 813.593 233.348 812.805 229.682C812.047 226.015 810.487 223.121 808.123 221C805.759 218.879 802.532 217.818 798.441 217.818C794.471 217.818 790.956 218.833 787.896 220.864C784.865 222.894 782.35 225.727 780.35 229.364C778.35 233 776.956 237.242 776.168 242.091Z" fill="white"/>
<path d="M310.508 370L318.236 323.455H335.281C338.584 323.455 341.228 324 343.213 325.091C345.213 326.167 346.592 327.629 347.349 329.477C348.107 331.311 348.289 333.379 347.895 335.682C347.576 337.621 346.948 339.25 346.008 340.568C345.084 341.886 343.963 342.947 342.645 343.75C341.326 344.553 339.94 345.136 338.486 345.5L338.395 345.955C339.91 346.03 341.326 346.53 342.645 347.455C343.978 348.364 344.993 349.659 345.69 351.341C346.387 353.023 346.546 355.068 346.167 357.477C345.758 359.856 344.834 361.992 343.395 363.886C341.97 365.765 340.008 367.258 337.508 368.364C335.008 369.455 331.955 370 328.349 370H310.508ZM318.531 363.977H328.667C332.031 363.977 334.546 363.326 336.213 362.023C337.895 360.72 338.91 359.091 339.258 357.136C339.486 355.667 339.326 354.318 338.781 353.091C338.251 351.864 337.357 350.886 336.099 350.159C334.857 349.432 333.296 349.068 331.417 349.068H321.031L318.531 363.977ZM321.963 343.591H331.349C332.925 343.591 334.395 343.288 335.758 342.682C337.137 342.076 338.281 341.22 339.19 340.114C340.114 339.008 340.69 337.712 340.917 336.227C341.251 334.288 340.849 332.674 339.713 331.386C338.592 330.083 336.645 329.432 333.872 329.432H324.281L321.963 343.591ZM378.952 370.705C375.528 370.705 372.695 369.97 370.452 368.5C368.225 367.015 366.664 364.932 365.771 362.25C364.877 359.553 364.733 356.394 365.339 352.773C365.93 349.197 367.119 346.045 368.907 343.318C370.695 340.591 372.922 338.462 375.589 336.932C378.271 335.402 381.233 334.636 384.475 334.636C386.445 334.636 388.301 334.962 390.043 335.614C391.801 336.265 393.293 337.288 394.521 338.682C395.748 340.076 396.596 341.886 397.066 344.114C397.551 346.326 397.536 349.015 397.021 352.182L396.634 354.591H368.861L369.657 349.5H390.748C391.066 347.712 390.983 346.129 390.498 344.75C390.013 343.356 389.18 342.258 387.998 341.455C386.831 340.652 385.361 340.25 383.589 340.25C381.771 340.25 380.074 340.727 378.498 341.682C376.922 342.636 375.604 343.856 374.543 345.341C373.498 346.811 372.839 348.326 372.566 349.886L371.771 354.545C371.377 357.091 371.445 359.136 371.975 360.682C372.521 362.227 373.475 363.348 374.839 364.045C376.202 364.742 377.907 365.091 379.952 365.091C381.271 365.091 382.49 364.909 383.611 364.545C384.748 364.167 385.755 363.614 386.634 362.886C387.513 362.144 388.248 361.22 388.839 360.114L395.066 361.273C394.233 363.167 393.036 364.826 391.475 366.25C389.914 367.659 388.074 368.758 385.952 369.545C383.846 370.318 381.513 370.705 378.952 370.705ZM413.868 370L419.686 335.091H426.209L425.254 340.773H425.686C426.747 338.848 428.186 337.348 430.004 336.273C431.838 335.182 433.914 334.636 436.232 334.636C438.535 334.636 440.391 335.182 441.8 336.273C443.224 337.364 444.156 338.864 444.595 340.773H444.959C446.08 338.894 447.648 337.402 449.664 336.295C451.679 335.189 453.944 334.636 456.459 334.636C459.595 334.636 462.004 335.636 463.686 337.636C465.383 339.621 465.898 342.606 465.232 346.591L461.323 370H454.504L458.323 347.227C458.701 344.848 458.338 343.136 457.232 342.091C456.126 341.03 454.679 340.5 452.891 340.5C450.679 340.5 448.845 341.182 447.391 342.545C445.936 343.894 445.042 345.629 444.709 347.75L440.959 370H434.209L438.095 346.795C438.398 344.886 438.05 343.364 437.05 342.227C436.065 341.076 434.626 340.5 432.732 340.5C431.444 340.5 430.194 340.841 428.982 341.523C427.785 342.205 426.762 343.144 425.914 344.341C425.065 345.538 424.512 346.917 424.254 348.477L420.664 370H413.868ZM536.006 347.386L535.029 353.273H514.37L515.347 347.386H536.006ZM618.23 335.091L599.752 370H592.48L585.616 335.091H592.639L597.002 361.955H597.366L610.661 335.091H618.23ZM630.958 370L636.776 335.091H643.571L637.753 370H630.958ZM641.594 329.636C640.412 329.636 639.412 329.242 638.594 328.455C637.791 327.652 637.42 326.697 637.481 325.591C637.541 324.47 638.011 323.515 638.89 322.727C639.768 321.924 640.791 321.523 641.958 321.523C643.14 321.523 644.132 321.924 644.935 322.727C645.738 323.515 646.117 324.47 646.071 325.591C646.011 326.697 645.541 327.652 644.662 328.455C643.799 329.242 642.776 329.636 641.594 329.636ZM657.123 349.273L653.714 370H646.918L652.736 335.091H659.259L658.304 340.773H658.736C659.842 338.909 661.35 337.424 663.259 336.318C665.183 335.197 667.456 334.636 670.077 334.636C672.441 334.636 674.426 335.136 676.032 336.136C677.653 337.121 678.797 338.591 679.464 340.545C680.145 342.5 680.251 344.917 679.782 347.795L676.054 370H669.259L672.827 348.614C673.236 346.083 672.903 344.106 671.827 342.682C670.767 341.242 669.077 340.523 666.759 340.523C665.183 340.523 663.721 340.864 662.373 341.545C661.039 342.227 659.91 343.227 658.986 344.545C658.077 345.848 657.456 347.424 657.123 349.273ZM710.328 370.682C707.495 370.682 705.093 369.962 703.124 368.523C701.169 367.068 699.783 365 698.964 362.318C698.161 359.621 698.07 356.386 698.692 352.614C699.328 348.841 700.502 345.614 702.214 342.932C703.927 340.25 706.002 338.197 708.442 336.773C710.881 335.348 713.51 334.636 716.328 334.636C718.495 334.636 720.177 335 721.374 335.727C722.586 336.439 723.48 337.273 724.055 338.227C724.631 339.182 725.063 340.023 725.351 340.75H725.737L728.624 323.455H735.419L727.692 370H721.055L721.987 364.568H721.419C720.889 365.311 720.154 366.159 719.214 367.114C718.29 368.068 717.108 368.902 715.669 369.614C714.23 370.326 712.449 370.682 710.328 370.682ZM712.624 364.886C714.578 364.886 716.328 364.371 717.874 363.341C719.434 362.295 720.73 360.848 721.76 359C722.805 357.152 723.533 355 723.942 352.545C724.351 350.121 724.343 348 723.919 346.182C723.495 344.364 722.677 342.947 721.464 341.932C720.252 340.917 718.654 340.409 716.669 340.409C714.624 340.409 712.843 340.939 711.328 342C709.813 343.061 708.57 344.508 707.601 346.341C706.646 348.174 705.98 350.242 705.601 352.545C705.207 354.879 705.192 356.977 705.555 358.841C705.919 360.705 706.684 362.182 707.851 363.273C709.017 364.348 710.608 364.886 712.624 364.886ZM764.391 370.705C761.073 370.705 758.301 369.947 756.073 368.432C753.846 366.902 752.278 364.765 751.369 362.023C750.475 359.265 750.323 356.061 750.914 352.409C751.49 348.833 752.649 345.712 754.391 343.045C756.149 340.379 758.346 338.311 760.982 336.841C763.634 335.371 766.581 334.636 769.823 334.636C773.141 334.636 775.907 335.402 778.119 336.932C780.346 338.462 781.914 340.606 782.823 343.364C783.732 346.121 783.891 349.333 783.301 353C782.725 356.545 781.551 359.652 779.778 362.318C778.02 364.97 775.823 367.03 773.187 368.5C770.551 369.97 767.619 370.705 764.391 370.705ZM764.778 365C766.96 365 768.861 364.424 770.482 363.273C772.119 362.121 773.452 360.591 774.482 358.682C775.513 356.773 776.217 354.682 776.596 352.409C776.945 350.212 776.937 348.205 776.573 346.386C776.225 344.553 775.467 343.083 774.301 341.977C773.134 340.871 771.513 340.318 769.437 340.318C767.255 340.318 765.338 340.902 763.687 342.068C762.051 343.22 760.717 344.758 759.687 346.682C758.672 348.606 757.982 350.705 757.619 352.977C757.27 355.159 757.27 357.167 757.619 359C757.967 360.818 758.725 362.273 759.891 363.364C761.058 364.455 762.687 365 764.778 365ZM805.455 350.682C806.394 344.985 808.008 339.742 810.296 334.955C812.584 330.167 815.508 325.75 819.069 321.705H825.296C823.932 323.205 822.584 325.045 821.25 327.227C819.917 329.409 818.675 331.803 817.523 334.409C816.372 337 815.356 339.689 814.478 342.477C813.614 345.25 812.955 347.985 812.5 350.682C811.894 354.288 811.637 357.939 811.728 361.636C811.834 365.333 812.228 368.765 812.909 371.932C813.606 375.098 814.538 377.682 815.705 379.682H809.455C807.258 375.636 805.803 371.22 805.091 366.432C804.379 361.644 804.5 356.394 805.455 350.682ZM846.666 370.773C844.454 370.773 842.522 370.364 840.871 369.545C839.219 368.712 837.999 367.508 837.211 365.932C836.424 364.356 836.219 362.424 836.598 360.136C836.931 358.167 837.583 356.545 838.552 355.273C839.537 354 840.734 352.992 842.143 352.25C843.552 351.492 845.083 350.924 846.734 350.545C848.386 350.167 850.052 349.886 851.734 349.705C853.855 349.462 855.575 349.258 856.893 349.091C858.227 348.924 859.227 348.667 859.893 348.318C860.56 347.955 860.961 347.364 861.098 346.545V346.386C861.416 344.417 861.128 342.886 860.234 341.795C859.355 340.689 857.825 340.136 855.643 340.136C853.371 340.136 851.461 340.636 849.916 341.636C848.386 342.636 847.257 343.758 846.53 345L840.439 343.545C841.53 341.424 842.916 339.712 844.598 338.409C846.295 337.091 848.151 336.136 850.166 335.545C852.181 334.939 854.242 334.636 856.348 334.636C857.742 334.636 859.189 334.803 860.689 335.136C862.189 335.455 863.552 336.045 864.78 336.909C866.022 337.773 866.946 339.008 867.552 340.614C868.158 342.205 868.249 344.273 867.825 346.818L863.984 370H857.348L858.166 365.227H857.893C857.318 366.106 856.514 366.97 855.484 367.818C854.469 368.667 853.227 369.371 851.757 369.932C850.287 370.492 848.59 370.773 846.666 370.773ZM848.984 365.318C850.878 365.318 852.552 364.947 854.007 364.205C855.477 363.462 856.666 362.492 857.575 361.295C858.484 360.083 859.052 358.788 859.28 357.409L860.03 352.909C859.742 353.152 859.234 353.371 858.507 353.568C857.795 353.765 856.992 353.939 856.098 354.091C855.204 354.242 854.325 354.371 853.461 354.477C852.613 354.583 851.908 354.682 851.348 354.773C850.014 354.939 848.764 355.22 847.598 355.614C846.446 356.008 845.484 356.576 844.711 357.318C843.939 358.045 843.454 359.015 843.257 360.227C842.984 361.909 843.386 363.182 844.461 364.045C845.552 364.894 847.06 365.318 848.984 365.318ZM901.491 350.682C900.536 356.394 898.915 361.644 896.627 366.432C894.354 371.22 891.43 375.636 887.854 379.682H881.627C883.006 378.182 884.354 376.341 885.673 374.159C887.006 371.977 888.248 369.591 889.4 367C890.567 364.394 891.582 361.697 892.445 358.909C893.309 356.121 893.968 353.379 894.423 350.682C895.029 347.091 895.279 343.447 895.173 339.75C895.082 336.053 894.688 332.621 893.991 329.455C893.309 326.288 892.385 323.705 891.218 321.705H897.468C899.665 325.75 901.12 330.167 901.832 334.955C902.544 339.742 902.43 344.985 901.491 350.682ZM937.838 323.455L931.747 356.614H925.475L930.361 323.455H937.838ZM926.952 370.432C925.679 370.432 924.619 369.992 923.77 369.114C922.937 368.235 922.528 367.159 922.543 365.886C922.558 364.629 923.028 363.576 923.952 362.727C924.891 361.864 925.982 361.432 927.225 361.432C928.467 361.432 929.528 361.871 930.407 362.75C931.285 363.629 931.694 364.674 931.634 365.886C931.588 366.735 931.346 367.508 930.907 368.205C930.482 368.886 929.922 369.432 929.225 369.841C928.528 370.235 927.77 370.432 926.952 370.432Z" fill="white"/>
<defs>
<linearGradient id="paint0_linear_33_3" x1="619" y1="0" x2="619" y2="282" gradientUnits="userSpaceOnUse">
<stop stop-color="#FFAD60"/>
<stop offset="1" stop-color="#99683A"/>
</linearGradient>
</defs>
</svg>
